<svg width="1024" height="1024" viewBox="0 0 1024 1024" fill="none" xmlns="http://www.w3.org/2000/svg">
<path d="M414.406 353.302C446.162 353.302 462.04 353.301 474.169 359.481C484.838 364.917 493.512 373.592 498.949 384.262C505.129 396.391 505.128 412.269 505.128 444.024V578.975C505.128 610.731 505.129 626.61 498.949 638.739C493.512 649.408 484.838 658.082 474.169 663.518C462.04 669.699 446.162 669.698 414.406 669.698H212.547C180.791 669.698 164.913 669.698 152.784 663.518C142.115 658.082 133.44 649.408 128.003 638.739C121.823 626.61 121.824 610.731 121.824 578.975V444.025C121.824 412.269 121.823 396.391 128.003 384.262C133.44 373.592 142.114 364.917 152.784 359.481C164.913 353.301 180.791 353.302 212.546 353.302H414.406ZM180.793 580.109C174.53 580.109 169.454 585.187 169.454 591.45V631.141C169.454 637.404 174.531 642.481 180.793 642.481H244.3C250.563 642.481 255.64 637.404 255.64 631.141V591.45C255.64 585.187 250.563 580.109 244.3 580.109H180.793ZM281.723 580.109C275.46 580.109 270.383 585.187 270.383 591.45V631.141C270.383 637.404 275.46 642.481 281.723 642.481H345.229C351.492 642.481 356.57 637.404 356.57 631.141V591.45C356.57 585.187 351.492 580.109 345.229 580.109H281.723ZM382.653 580.109C376.39 580.109 371.312 585.187 371.312 591.45V631.141C371.312 637.404 376.39 642.481 382.653 642.481H446.159C452.422 642.481 457.499 637.404 457.499 631.141V591.45C457.499 585.187 452.422 580.109 446.159 580.109H382.653ZM180.793 380.518C174.53 380.519 169.454 385.596 169.454 391.859V431.551C169.454 437.813 174.531 442.89 180.793 442.89H244.3C250.563 442.89 255.64 437.813 255.64 431.551V391.859C255.64 385.596 250.563 380.519 244.3 380.518H180.793ZM281.723 380.518C275.46 380.518 270.383 385.596 270.383 391.859V431.551C270.383 437.814 275.46 442.89 281.723 442.89H345.229C351.492 442.89 356.57 437.814 356.57 431.551V391.859C356.57 385.596 351.492 380.518 345.229 380.518H281.723ZM382.653 380.518C376.39 380.518 371.312 385.596 371.312 391.859V431.551C371.312 437.814 376.39 442.89 382.653 442.89H446.159C452.422 442.89 457.499 437.814 457.499 431.551V391.859C457.499 385.596 452.422 380.518 446.159 380.518H382.653Z" fill="url(#paint0_linear_1_5)"/>
<path d="M812.453 353.302C844.209 353.302 860.088 353.301 872.217 359.481C882.886 364.917 891.56 373.592 896.996 384.262C903.176 396.391 903.177 412.269 903.177 444.024V578.975C903.177 610.731 903.176 626.61 896.996 638.739C891.56 649.408 882.886 658.082 872.217 663.518C860.088 669.699 844.209 669.698 812.453 669.698H711.523C679.768 669.698 663.89 669.698 651.761 663.518C641.092 658.082 632.417 649.408 626.98 638.739C620.8 626.61 620.801 610.731 620.801 578.975V444.025C620.801 412.269 620.8 396.391 626.98 384.262C632.417 373.592 641.092 364.917 651.761 359.481C663.89 353.301 679.768 353.302 711.523 353.302H812.453ZM679.771 580.109C673.507 580.109 668.431 585.187 668.431 591.45V631.141C668.431 637.404 673.508 642.481 679.771 642.481H743.277C749.54 642.481 754.617 637.404 754.617 631.141V591.45C754.617 585.187 749.54 580.109 743.277 580.109H679.771ZM780.7 580.109C774.437 580.109 769.359 585.187 769.359 591.45V631.141C769.36 637.404 774.437 642.481 780.7 642.481H844.206C850.469 642.481 855.547 637.404 855.547 631.141V591.45C855.547 585.187 850.469 580.109 844.206 580.109H780.7ZM679.771 380.518C673.507 380.518 668.431 385.596 668.431 391.859V431.551C668.431 437.813 673.508 442.89 679.771 442.89H743.277C749.54 442.89 754.617 437.813 754.617 431.551V391.859C754.617 385.596 749.54 380.519 743.277 380.518H679.771ZM780.7 380.518C774.437 380.518 769.359 385.596 769.359 391.859V431.551C769.36 437.814 774.437 442.89 780.7 442.89H844.206C850.469 442.89 855.547 437.814 855.547 431.551V391.859C855.547 385.596 850.469 380.518 844.206 380.518H780.7Z" fill="url(#paint1_linear_1_5)"/>
<defs>
<linearGradient id="paint0_linear_1_5" x1="313.476" y1="669.698" x2="313.476" y2="353.302" gradientUnits="userSpaceOnUse">
<stop stop-color="#906CFF"/>
<stop offset="1" stop-color="#D3C6FF"/>
</linearGradient>
<linearGradient id="paint1_linear_1_5" x1="761.989" y1="669.698" x2="761.989" y2="353.302" gradientUnits="userSpaceOnUse">
<stop stop-color="#906CFF"/>
<stop offset="1" stop-color="#D3C6FF"/>
</linearGradient>
</defs>
</svg>
